<?xml version="1.0" standalone="no"?><!DOCTYPE svg PUBLIC "-//W3C//DTD SVG 1.1//EN" "http://www.w3.org/Graphics/SVG/1.1/DTD/svg11.dtd"><svg t="1549012094090" class="icon" style="" viewBox="0 0 1024 1024" version="1.1" xmlns="http://www.w3.org/2000/svg" p-id="3159" xmlns:xlink="http://www.w3.org/1999/xlink" width="48" height="48"><defs><style type="text/css"></style></defs><path d="M806.9 155.2H217.2c-64 0-116.1 55.6-116.1 124v380c0 68.4 52.1 124 116.1 124h101.3l-5.9 101.6c-0.5 9.4 4.5 18.3 12.8 22.6 3.5 1.8 7.3 2.8 11.2 2.8 5.2 0 10.4-1.7 14.7-5.1l156.8-122h298.7c64 0 116.1-55.6 116.1-124v-380c0.1-68.3-52-123.9-116-123.9zM303 528.7c-33.1 0-60-26.9-60-60s26.9-60 60-60 60 26.9 60 60-26.8 60-60 60z m209 1c-33.1 0-60-26.9-60-60s26.9-60 60-60 60 26.9 60 60-26.8 60-60 60z m209-1c-33.1 0-60-26.9-60-60s26.9-60 60-60 60 26.9 60 60-26.8 60-60 60z" p-id="3160" fill="#fe3f4b"></path></svg>