<?xml version="1.0" standalone="no"?><!DOCTYPE svg PUBLIC "-//W3C//DTD SVG 1.1//EN" "http://www.w3.org/Graphics/SVG/1.1/DTD/svg11.dtd"><svg t="1549012077709" class="icon" style="" viewBox="0 0 1024 1024" version="1.1" xmlns="http://www.w3.org/2000/svg" p-id="2912" xmlns:xlink="http://www.w3.org/1999/xlink" width="48" height="48"><defs><style type="text/css"></style></defs><path d="M806.9 783.2H500.6c-13.3 0-24-10.7-24-24s10.7-24 24-24h306.3c37.6 0 68.1-34.1 68.1-76v-380c0-41.9-30.6-76-68.1-76H217.2c-37.6 0-68.1 34.1-68.1 76v380c0 41.9 30.6 76 68.1 76H344c13.3 0 24 10.7 24 24s-10.7 24-24 24H217.2c-64 0-116.1-55.6-116.1-124v-380c0-68.4 52.1-124 116.1-124h589.7c64 0 116.1 55.6 116.1 124v380c0 68.4-52.1 124-116.1 124z" p-id="2913" fill="#000000"></path><path d="M336.6 910.2c-7.2 0-14.2-3.2-19-9.3-8.1-10.5-6.3-25.5 4.2-33.7l162-126c10.5-8.1 25.5-6.3 33.7 4.2 8.1 10.5 6.3 25.5-4.2 33.7l-162 126c-4.3 3.5-9.5 5.1-14.7 5.1z" p-id="2914" fill="#000000"></path><path d="M303 468.7m-60 0a60 60 0 1 0 120 0 60 60 0 1 0-120 0Z" p-id="2915" fill="#000000"></path><path d="M512 469.7m-60 0a60 60 0 1 0 120 0 60 60 0 1 0-120 0Z" p-id="2916" fill="#000000"></path><path d="M721 468.7m-60 0a60 60 0 1 0 120 0 60 60 0 1 0-120 0Z" p-id="2917" fill="#000000"></path></svg>