<?xml version="1.0" standalone="no"?><!DOCTYPE svg PUBLIC "-//W3C//DTD SVG 1.1//EN" "http://www.w3.org/Graphics/SVG/1.1/DTD/svg11.dtd"><svg t="1548993313694" class="icon" style="" viewBox="0 0 1024 1024" version="1.1" xmlns="http://www.w3.org/2000/svg" p-id="1773" xmlns:xlink="http://www.w3.org/1999/xlink" width="48" height="48"><defs><style type="text/css"></style></defs><path d="M946.1 405.9L602 127.7c-25.4-20.5-57.3-31.8-90-31.8-32.6 0-64.6 11.3-90 31.8L78 405.9c-10.3 8.3-11.9 23.4-3.6 33.8 4.7 5.8 11.6 8.9 18.5 8.9h40.7v349.1c0 72.8 63.4 132 141.3 132H403c20.8 0 37.7-16.9 37.7-37.7V735.8c0-39.3 32-71.3 71.3-71.3s71.3 32 71.3 71.3v156.1c0 20.8 16.9 37.7 37.7 37.7h128.1c77.9 0 141.3-59.2 141.3-132v-349H931c7 0 13.9-3.1 18.6-8.9 8.4-10.3 6.8-25.5-3.5-33.8z" p-id="1774" fill="#fe3f4b"></path></svg>