<?xml version="1.0" standalone="no"?><!DOCTYPE svg PUBLIC "-//W3C//DTD SVG 1.1//EN" "http://www.w3.org/Graphics/SVG/1.1/DTD/svg11.dtd"><svg t="1548993487244" class="icon" style="" viewBox="0 0 1024 1024" version="1.1" xmlns="http://www.w3.org/2000/svg" p-id="2585" xmlns:xlink="http://www.w3.org/1999/xlink" width="48" height="48"><defs><style type="text/css"></style></defs><path d="M512 495.1c-57.2 0-110.9-20.7-151.3-58.3S298 349.2 298 296s22.3-103.1 62.7-140.7S454.9 97 512 97s110.9 20.7 151.3 58.3S726 242.9 726 296s-22.3 103.1-62.7 140.7-94.1 58.4-151.3 58.4z m0-353.5c-91.5 0-166 69.3-166 154.4s74.5 154.4 166 154.4S678 381.2 678 296s-74.4-154.4-166-154.4z" p-id="2586"></path><path d="M512 927c-90.8 0-168.2-15-223.7-43.3C222.7 850.1 188 798.4 188 734.2c0-43.5 15.6-89.6 45-133.1 29.2-43.1 69.4-80 116.4-106.6 11.3-6.4 26.1-3.1 33 7.5 6.9 10.5 3.3 24.3-8 30.7-81.5 46-138.4 128.9-138.4 201.5 0 47.7 25.4 84.8 75.4 110.4 48.4 24.7 117.8 37.8 200.6 37.8s152.2-13.1 200.6-37.8c50-25.6 75.4-62.7 75.4-110.4 0-52.9-30.2-112.6-80.8-159.6-55.2-51.3-124.5-79.5-195.2-79.5-13.3 0-24-10-24-22.3s10.7-22.3 24-22.3c43.2 0 85.8 8.8 126.7 26.1 37.6 15.9 72.1 38.3 102.4 66.5 59.4 55.2 94.9 126.7 94.9 191.2 0 64.3-34.7 116-100.3 149.5C680.2 912 602.9 927 512 927z" p-id="2587"></path></svg>