<?xml version="1.0" standalone="no"?><!DOCTYPE svg PUBLIC "-//W3C//DTD SVG 1.1//EN" "http://www.w3.org/Graphics/SVG/1.1/DTD/svg11.dtd"><svg t="1548993491763" class="icon" style="" viewBox="0 0 1024 1024" version="1.1" xmlns="http://www.w3.org/2000/svg" p-id="2709" xmlns:xlink="http://www.w3.org/1999/xlink" width="48" height="48"><defs><style type="text/css"></style></defs><path d="M741.3 542.8c-30.3-28.1-64.8-50.5-102.5-66.4-6.7-2.8-13.4-5.4-20.2-7.8 16.2-8.7 31.2-19.3 44.7-31.9C703.8 399.2 726 349.2 726 296s-22.3-103.1-62.7-140.7C622.9 117.7 569.2 97 512 97s-110.9 20.7-151.3 58.3S298 242.9 298 296s22.3 103.1 62.7 140.7c13.5 12.6 28.6 23.3 44.7 31.9-6.8 2.4-13.5 4.9-20.2 7.8-37.7 15.9-72.1 38.2-102.5 66.4-59.5 55.2-95 126.6-95 191.2 0 64.3 34.7 116.1 100.4 149.6C343.7 912 421.1 927 512 927s168.4-15 223.9-43.4C801.6 850 836.3 798.3 836.3 734c0-64.5-35.5-136-95-191.2z" p-id="2710" fill="#fe3f4b"></path></svg>